<svg width="134" height="134" viewBox="0 0 134 134" fill="none" xmlns="http://www.w3.org/2000/svg">
<path d="M66.5766 0C38.7906 0 30.6642 0.0286644 29.0846 0.159702C23.3824 0.633688 19.8342 1.5315 15.9686 3.45611C12.9895 4.9354 10.6401 6.65014 8.32132 9.05386C4.09844 13.4375 1.53912 18.8305 0.612645 25.2411C0.162204 28.3532 0.0311669 28.9879 0.00454991 44.8844C-0.00568738 50.1832 0.00454991 57.1568 0.00454991 66.5107C0.00454991 94.2742 0.0352618 102.392 0.168347 103.969C0.629025 109.518 1.49919 113.008 3.34191 116.827C6.86353 124.136 13.5894 129.624 21.5131 131.671C24.2567 132.377 27.2869 132.766 31.1771 132.951C32.8253 133.022 49.6247 133.074 66.4343 133.074C83.2439 133.074 100.054 133.053 101.661 132.971C106.165 132.759 108.781 132.408 111.673 131.661C115.602 130.653 119.263 128.8 122.402 126.231C125.54 123.662 128.08 120.438 129.844 116.786C131.651 113.06 132.567 109.436 132.982 104.177C133.072 103.03 133.11 84.7494 133.11 66.4932C133.11 48.234 133.069 29.9871 132.979 28.8405C132.559 23.4966 131.643 19.9033 129.778 16.1053C128.247 12.9962 126.548 10.6744 124.081 8.3004C119.678 4.09492 114.294 1.53559 107.876 0.610143C104.767 0.160725 104.147 0.0276407 88.2387 0H66.5766Z" fill="url(#paint0_radial_301_17)"/>
<path d="M66.5766 0C38.7906 0 30.6642 0.0286644 29.0846 0.159702C23.3824 0.633688 19.8342 1.5315 15.9686 3.45611C12.9895 4.9354 10.6401 6.65014 8.32132 9.05386C4.09844 13.4375 1.53912 18.8305 0.612645 25.2411C0.162204 28.3532 0.0311669 28.9879 0.00454991 44.8844C-0.00568738 50.1832 0.00454991 57.1568 0.00454991 66.5107C0.00454991 94.2742 0.0352618 102.392 0.168347 103.969C0.629025 109.518 1.49919 113.008 3.34191 116.827C6.86353 124.136 13.5894 129.624 21.5131 131.671C24.2567 132.377 27.2869 132.766 31.1771 132.951C32.8253 133.022 49.6247 133.074 66.4343 133.074C83.2439 133.074 100.054 133.053 101.661 132.971C106.165 132.759 108.781 132.408 111.673 131.661C115.602 130.653 119.263 128.8 122.402 126.231C125.54 123.662 128.08 120.438 129.844 116.786C131.651 113.06 132.567 109.436 132.982 104.177C133.072 103.03 133.11 84.7494 133.11 66.4932C133.11 48.234 133.069 29.9871 132.979 28.8405C132.559 23.4966 131.643 19.9033 129.778 16.1053C128.247 12.9962 126.548 10.6744 124.081 8.3004C119.678 4.09492 114.294 1.53559 107.876 0.610143C104.767 0.160725 104.147 0.0276407 88.2387 0H66.5766Z" fill="url(#paint1_radial_301_17)"/>
<path d="M66.5459 17.4034C53.2006 17.4034 51.5257 17.4618 46.2842 17.7003C41.053 17.9398 37.4822 18.768 34.3578 19.9832C31.1259 21.2383 28.3843 22.9172 25.653 25.6495C22.9197 28.3809 21.2408 31.1224 19.9816 34.3533C18.7633 37.4787 17.9341 41.0505 17.6987 46.2797C17.4652 51.5212 17.4038 53.1971 17.4038 66.5424C17.4038 79.8877 17.4632 81.5574 17.7007 86.7989C17.9413 92.0302 18.7695 95.6009 19.9836 98.7254C21.2397 101.957 22.9187 104.699 25.651 107.43C28.3813 110.163 31.1228 111.847 34.3527 113.102C37.4791 114.317 41.0509 115.145 46.2812 115.385C51.5227 115.623 53.1965 115.681 66.5408 115.681C79.8871 115.681 81.5568 115.623 86.7983 115.385C92.0296 115.145 95.6044 114.317 98.7309 113.102C101.962 111.847 104.699 110.163 107.43 107.43C110.163 104.699 111.842 101.957 113.101 98.7264C114.309 95.601 115.138 92.0292 115.384 86.7999C115.619 81.5585 115.681 79.8877 115.681 66.5424C115.681 53.1971 115.619 51.5223 115.384 46.2808C115.138 41.0495 114.309 37.4787 113.101 34.3543C111.842 31.1224 110.163 28.3809 107.43 25.6495C104.696 22.9162 101.963 21.2373 98.7278 19.9832C95.5952 18.768 92.0224 17.9398 86.7912 17.7003C81.5497 17.4618 79.881 17.4034 66.5316 17.4034H66.5459ZM62.1377 26.2587C63.446 26.2566 64.9059 26.2587 66.5459 26.2587C79.666 26.2587 81.221 26.3058 86.4021 26.5412C91.1932 26.7603 93.7934 27.5609 95.5256 28.2334C97.8188 29.1241 99.4537 30.1888 101.172 31.9086C102.892 33.6285 103.957 35.2665 104.85 37.5596C105.522 39.2897 106.324 41.89 106.542 46.681C106.777 51.8611 106.829 53.4172 106.829 66.5311C106.829 79.6451 106.777 81.2012 106.542 86.3812C106.323 91.1723 105.522 93.7726 104.85 95.5027C103.959 97.7958 102.892 99.4287 101.172 101.148C99.4526 102.867 97.8198 103.932 95.5256 104.823C93.7955 105.498 91.1932 106.297 86.4021 106.516C81.2221 106.751 79.666 106.803 66.5459 106.803C53.4248 106.803 51.8697 106.751 46.6896 106.516C41.8986 106.295 39.2983 105.494 37.5651 104.822C35.272 103.931 33.634 102.866 31.9142 101.146C30.1943 99.4266 29.1296 97.7928 28.2369 95.4986C27.5643 93.7685 26.7628 91.1682 26.5447 86.3772C26.3092 81.1971 26.2621 79.641 26.2621 66.5189C26.2621 53.3967 26.3092 51.8488 26.5447 46.6688C26.7638 41.8777 27.5643 39.2774 28.2369 37.5453C29.1276 35.2521 30.1943 33.6142 31.9142 31.8943C33.634 30.1744 35.272 29.1098 37.5651 28.2171C39.2973 27.5414 41.8986 26.7429 46.6896 26.5228C51.2227 26.318 52.9794 26.2566 62.1377 26.2464V26.2587ZM92.7759 34.4178C91.6095 34.4178 90.4694 34.7637 89.4996 35.4117C88.5299 36.0597 87.7741 36.9808 87.3278 38.0584C86.8816 39.136 86.7649 40.3217 86.9926 41.4656C87.2203 42.6095 87.7821 43.6602 88.607 44.4848C89.4319 45.3094 90.4828 45.8708 91.6267 46.0981C92.7707 46.3254 93.9564 46.2083 95.0338 45.7617C96.1113 45.3151 97.0321 44.559 97.6798 43.589C98.3275 42.619 98.673 41.4788 98.6725 40.3124C98.6725 37.057 96.0313 34.4157 92.7759 34.4157V34.4178ZM66.5459 41.3075C52.6099 41.3075 41.311 52.6064 41.311 66.5424C41.311 80.4784 52.6099 91.7722 66.5459 91.7722C80.4819 91.7722 91.7777 80.4784 91.7777 66.5424C91.7777 52.6064 80.4809 41.3075 66.5449 41.3075H66.5459ZM66.5459 50.1627C75.5916 50.1627 82.9255 57.4957 82.9255 66.5424C82.9255 75.5881 75.5916 82.9221 66.5459 82.9221C57.4992 82.9221 50.1662 75.5881 50.1662 66.5424C50.1662 57.4957 57.4992 50.1627 66.5459 50.1627Z" fill="white"/>
<defs>
<radialGradient id="paint0_radial_301_17" cx="0" cy="0" r="1" gradientUnits="userSpaceOnUse" gradientTransform="translate(35.3575 143.323) rotate(-90) scale(131.886 122.697)">
<stop stop-color="#FFDD55"/>
<stop offset="0.1" stop-color="#FFDD55"/>
<stop offset="0.5" stop-color="#FF543E"/>
<stop offset="1" stop-color="#C837AB"/>
</radialGradient>
<radialGradient id="paint1_radial_301_17" cx="0" cy="0" r="1" gradientTransform="matrix(11.5744 57.8067 -238.341 47.7229 -22.2966 9.58639)" gradientUnits="userSpaceOnUse">
<stop stop-color="#3771C8"/>
<stop offset="0.128" stop-color="#3771C8"/>
<stop offset="1" stop-color="#6600FF" stop-opacity="0"/>
</radialGradient>
</defs>
</svg>
